<?xml version="1.0" encoding="utf-8"?>
<!-- Generator: Adobe Illustrator 19.0.0, SVG Export Plug-In . SVG Version: 6.00 Build 0)  -->
<svg version="1.1" xmlns="http://www.w3.org/2000/svg" xmlns:xlink="http://www.w3.org/1999/xlink" x="0px" y="0px"
	 viewBox="0 0 960 560" style="enable-background:new 0 0 960 560;" xml:space="preserve">
<style type="text/css">
	.st0{fill:#F9F9F9;stroke:#000000;stroke-miterlimit:10;}
	.st1{font-family:'NirmalaUI-Semilight';}
	.st2{font-size:24px;}
	.st3{fill:none;stroke:#3E3E3E;stroke-width:7;stroke-miterlimit:10;}
	.st4{fill:#3E3E3E;}
	.st5{fill:none;stroke:#000000;stroke-miterlimit:10;}
</style>
<g id="Layer_3">
	<polygon id="XMLID_66_" class="st0" points="771.4,221.5 503.2,219.9 503.7,34.9 771.8,36.5 	"/>
	
		<rect id="XMLID_74_" x="504" y="304.1" transform="matrix(1 6.019840e-003 -6.019840e-003 1 2.3792 -3.877)" class="st0" width="282.4" height="178.4"/>
	
		<rect id="XMLID_65_" x="83.9" y="341.6" transform="matrix(1 6.019840e-003 -6.019840e-003 1 2.4863 -1.2887)" class="st0" width="262.9" height="141.5"/>
	<text id="XMLID_1_" transform="matrix(1 0 0 1 92.0019 235.876)" class="st1 st2">Entrance</text>
</g>
<g id="Layer_2">
	<path id="XMLID_2_" class="st3" d="M76.8,198.8l0.5-76.3l100,1.8l2.6-97.9l617.7,1.2l-2.1,466.9c-211.7-0.5-297.8-0.7-302.9-0.7
		c-3.4,0-4.9-0.2-9.1-0.1c-2.5,0.1-5-0.2-7.5,0c-2.2,0.1-3.7,0.4-4.5-0.5c-0.3-0.4-0.3-0.7-0.5-3.7c-0.1-2.5-0.1-3.7-0.1-3.8
		c-0.1-2.7-0.1-4.1,0-4.3c1-2.1,5.7-1.8,8.5-1.4c0,0,3.1-0.6,6.8-2.6c6.9-3.7,6.1-19.7,6.2-32c0-9.9-0.1-22.5-0.7-37.2
		c-4.9,0.1-11.2,0.5-18.4,1.7c-4.4,0.7-12,2-21.2,5.4c-3.2,1.2-10.6,4.1-20.3,10c-12.8,7.8-26.3,16.1-36.1,32
		c-3.8,6.2-10,18.2-11.2,35.8c-21.8,0.3-46.6,0.6-68.3,0.9l-241.1-3.1l1.4-235"/>
	<polyline id="XMLID_3_" class="st3" points="173.5,124 355.3,122.8 354.9,191.5 	"/>
	<polyline id="XMLID_5_" class="st3" points="481.4,27 480.1,129.7 434.8,129.5 	"/>
	<path id="XMLID_7_" class="st3" d="M759.8,231.6c6.4,0.1,12.8,0.3,19.2,0.4c0-4.7,0.1-9.5,0.1-14.2C780,154,780,91,780.9,27.1"/>
	<path id="XMLID_12_" class="st3" d="M495.9,27.3C495,94,494,161,494,228c74,1,147,2,220.9,3"/>
	<path id="XMLID_10_" class="st3" d="M575.1,294.1c73.9,0.9,146.9,2.9,221.1,3"/>
	<path id="XMLID_14_" class="st3" d="M495.1,490.3C494,424,496,359,496.3,293.1c0,0,0,0,0,0l33.4,0.5"/>
	<path id="XMLID_11_" class="st3" d="M339,333.7c6,0.3,11,0.3,17.2,0.3c0.1-9.4-0.3,0,0,0c-1.1-27.9,0.9-54.9,0.6-83.4"/>
	<path id="XMLID_13_" class="st3" d="M304.6,333.2C229,332,152,330,76,329.8c29.6,0.4,0.1,0,0,0c76,0.2,152,3.2,228.1,3.5"/>
	<path id="XMLID_8_" class="st3" d="M354.6,494.3C354,441,356,387,356,334l-17-0.3"/>
	<path id="XMLID_4_" class="st4" d="M293.1,102.6c-0.5-5.3-0.1-10.6,0-15.9c0-1.6-0.6-2.7-2.3-3.8c-8.1-5.4-16-11-24-16.4
		c-6.6-4.5-13.1-9-19.7-13.5c-0.6-0.4-2.1-1,0-1.4c-0.6-0.5-1.1-1.1-1.7-1.6c-0.8-0.5-1.5-1-2.2-1.7c-0.3-0.1-0.5-0.2-0.8-0.3
		c0,0,0,0,0,0c-2.4,0.4-3.6-0.6-5-1.6c-1.4-1-2.9-1.9-4.3-3c-1.3-1-2.7-1.3-4.6-1.3c-8.1,0-16.3,0.2-24.4-0.2
		c-8.4-0.4-16.6,5.2-16.4,11c0.4,11.4,0,22.8-0.1,34.2c0,5.5-0.1,11-0.1,16.5c0,1.3,0.3,2.5,1.1,3.6c3.2,4.7,8.9,6.8,16.2,6.9
		c23.6,0.2,47.1,0.3,70.7,0.4C285.9,114.6,293.7,109,293.1,102.6z M194.1,110.5c0.5-1.3,1.4-1.6,2.1-2.1c4.5-3,9-6.1,13.6-9.1
		c1.4-0.9,1.7-1.7,0.8-2.9c-2.1-2.8-0.5-6.3,3.4-7.8c3.6-1.4,9.3-0.6,11.7,1.7c2.4,2.2,2.4,5.1-0.1,7.4c-2.2,2.1-6.6,3-10.4,1.8
		c-2.6-0.9-4-0.3-5.7,0.9c-4.3,3-8.8,5.9-13.2,8.8C195.8,109.5,195.1,109.9,194.1,110.5z M291.2,103.3c0.2,6.1-7.2,10.1-15.2,10.1
		c-23.8,0-47.7-0.2-71.5-0.4c-2.5,0-4.7-0.7-6.9-1.2c-1.3-0.3-1.5-0.8-0.4-1.5c0.8-0.5,1.6-1,2.3-1.6c1.5-1.2,3-1.9,5.4-0.8
		c1.2,0.5,2.7,0.3,4.1,0.3c19.5,0.1,39,0.2,58.5,0.4c8.6,0,14-3.3,14.3-9.1c0.3-4.6,0.1-9.3,0.2-13.9c0-1.5-1.4-2.4-2.8-3.3
		c-12.7-8.7-25.5-17.5-38.2-26.3c-2.6-1.8-5.1-3.6-8-5.2c-2.2-1.1-4.5-1.6-7.1-1.6c-5.3,0-10.6,0.2-15.8-0.1
		c-8-0.4-14.4,3.9-14.4,9.7c0,9-0.1,18-0.2,27c0,4.2,0,8.4,0,12.6c0,2,0.5,4,2.3,5.7c0.8,0.8,0.6,1.4-0.3,2
		c-0.4,0.3-0.8,0.5-1.2,0.8c-4.3,3.1-4.2,1.7-6.1-1.2c-0.6-1-0.7-2.2-0.7-3.3c0-7.3,0.1-14.6,0.2-22c0-0.9,0-1.7,0-2.6
		c0,0-0.1,0-0.1,0c0-7.9,0-15.9,0.2-23.8c0.1-4.7,2.8-8.3,9.5-10.2c1.2-0.4,2.5-0.5,3.8-0.5c8.9,0,17.7,0,26.6,0
		c1.6,0,2.3,0.8,3.2,1.4C251,57.2,269.4,69.9,288,82.5c2.4,1.6,3.4,3.3,3.3,5.6C291,93.1,291,98.2,291.2,103.3z M246.5,73
		c0-1.4,1.7-2.5,3.7-2.4c2.3,0.1,3.2,1,3.4,2.3c0,1.6-1.1,2.5-3.3,2.5C248.1,75.4,246.5,74.4,246.5,73z"/>
	<g id="XMLID_35_">
		<path id="XMLID_54_" d="M297.3,32.4c0.3-2.5,0.4-2.7,4.2-2.7c17.7,0.1,35.3,0.2,53,0.3c3.9,0,3.9,0.1,4.1,2.8
			c0.1,3.3-0.5,6.6-1.7,9.8c-0.7,1.7-1.8,2.8-4.7,2.5c-1.7-0.2-2.2,0.3-2.2,1.5c0,2.8-0.4,5.6,2.6,8c1,0.8,1.1,1.9,1.3,2.8
			c0.9,6.6-0.2,13.1-4.2,19.2c-2.4,3.7-5.2,7.2-9.3,10.1c-3.1,2.2-6.7,3.8-11.1,4.2c-4.7,0.5-8.7-0.9-12.1-3
			c-5.5-3.3-8.8-7.5-11.3-12.1c-3-5.4-4.2-11-3.8-16.7c0.2-2.7,1.2-5.2,3.9-7.2c1.1-0.8,1.7-5.8,1-6.7c-0.5-0.5-1.2-0.5-1.9-0.5
			c-5.2-0.3-5.2-0.3-6.4-3.5 M351.9,62.2c0-1.3,0.3-2.7,0-3.9c-1-4.1-3.2-6.4-8.3-6.8c-3.1-0.2-6.3-0.6-9.6-0.5
			c-6.5,0.2-13.1,0-19.6,0.2c-3.4,0.1-7.6,1.3-8.8,3.4c-0.9,1.7-1.9,3.4-1.8,5.2c0.2,2.7,0.2,5.4,0.8,8.2
			c1.5,6.4,4.9,12.2,10.7,17.3c4.7,4.1,12,6.1,19.3,3c2.9-1.2,5.2-2.8,7.1-4.7C348.5,77.1,351.8,70,351.9,62.2z M327.9,31.5
			c-8.6-0.1-17.2-0.1-25.8-0.2c-2.3,0-3.1,0.6-3,2.1c0.1,2.8,1.2,5.4,1.6,8.1c0.2,1.5,1.3,1.8,3.3,1.8c16,0.1,32,0.2,48,0.3
			c1.6,0,2.3-0.4,2.8-1.3c1.5-2.8,1.2-5.7,1.4-8.5c0.1-1.7-0.9-2.3-3.4-2.3C344.5,31.6,336.2,31.5,327.9,31.5z M309.3,50.2
			c1.8,0,2.9-0.5,3.4-1.7c0.2-0.6,0.7-1.1,1.2-1.7c1-1.2,2.2-1.2,3.4,0c0.5,0.5,0.9,1,1.1,1.5c0.5,1.1,1.4,1.4,3.1,1.4
			c4.7,0,9.4,0,14.1,0.1c1.5,0,2.4-0.4,2.8-1.4c0.4-1,0.6-2.3,2.7-2.2c2,0.1,2.3,1.4,2.7,2.5c0.1,0.2,0.1,0.5,0.2,0.7
			c0.5,0.9,1.9,1.1,3,1.1c1,0,0.5-0.9,0.6-1.5c0.1-0.3,0-0.6,0-0.9c0-3,0-3-4.3-3c-9.1-0.1-18.1-0.2-27.2-0.1c-8,0-7.1-1.3-7,5
			C309.2,50.1,309.2,50.1,309.3,50.2z"/>
		<path id="XMLID_64_" d="M414.8,79.3c3.5,0.3,7,0.1,10.5,0.1c9.3,0,18.7,0.1,28,0.2c4.6,0,6.4-1.2,6.4-4.2c0.1-12,0.2-24,0.2-36.1
			c0-3-1.6-4.1-5.9-4.1c-25.5-0.2-51-0.3-76.5-0.5c-4.4,0-6.4,1.3-6.4,4.3c-0.1,11.9-0.2,23.8-0.2,35.7c0,3,2,4.4,6.4,4.4
			c9.8,0.1,19.6,0.1,29.4,0.2 M458,75.1c0,2.5-0.9,3-4.4,3c-9.1,0-18.1-0.1-27.2-0.2c-1,0-16.4-0.1-16.6-0.1
			c-11.5-0.4-23.1-0.1-34.7-0.2c-1.2,0-1.8-0.6-1.9-1.4c0-0.4-0.1-0.9,0-1.3c0.1-12,0.1-23.9,0.2-35.9c0-2.5,0.7-3.1,4.6-3
			c25.2,0.1,50.5,0.3,75.7,0.5c3.5,0,4.5,0.7,4.5,3C458.2,51.3,458.1,63.2,458,75.1z"/>
		<path id="XMLID_39_" class="st4" d="M412.2,74.3c-6-0.2-11.9-0.9-17.5-2.6c-3.4-1-6.5-2.4-9.2-4.1c-7.5-4.9-6.8-11.9,1.5-16.2
			c6.8-3.6,14.9-4.8,23.2-5.5c3.9-0.3,4.6-1.1,2.4-3.4c-0.9-0.9-1.9-1.8-0.7-3.1c1-1,2.2-1.6,4.1-1.6c1.7,0,2.8,0.6,3.5,1.5
			c0.7,0.9,0.6,1.8-0.3,2.6c-0.4,0.4-1,0.8-1.4,1.2c-1.3,1.4-0.5,2.5,1.9,2.7c8.4,0.8,16.5,2.1,23.2,5.9c9.2,5.3,8.6,13.1-1.3,17.7
			c-5.8,2.7-12.2,3.9-19,4.7C420.4,74.4,414.7,74.4,412.2,74.3z M414.9,49.3c-6.9,0.1-13.9,0.8-20.2,3.2c-3.8,1.5-7.4,3.2-8,6.5
			c-0.7,3.3,2.2,6.5,6.9,8.3c5.2,2,10.8,3.1,16.8,3.5c9.4,0.7,18.5-0.2,26.6-3.5c3.8-1.6,7-3.8,6.7-7.2c-0.3-3.5-3.9-5.6-8-7.2
			C429.3,50.3,422.3,49.4,414.9,49.3z"/>
		<path id="XMLID_38_" d="M420.4,41.1c0.1-1.6,1.4-2.2,3.2-2.3c1.7-0.1,3.5,1.1,3.3,2.3c-0.2,1.3-1.4,2.1-3.2,2.1
			C421.7,43.2,420.6,42.3,420.4,41.1z"/>
		<path id="XMLID_37_" d="M404.3,41c0-1.7,1.6-2.3,3.3-2.3c1.8,0,3.1,0.7,3,2.2c0,1.2-1.7,2.4-3.3,2.2
			C405.5,42.9,404.4,42.1,404.3,41z"/>
		<path id="XMLID_36_" d="M412,59.3c-2.4-0.5-2.2-1.8-1.9-3c0.5-1.5,1.9-2.5,4.4-2.6c2.3-0.1,3.9,0.6,5,1.8c1,1.1,1,2.3-0.2,3.3
			c-1.3,1.2-2.9,1.9-5.1,1.7C413.2,60.4,412.2,60.2,412,59.3c1,0.1,1.9,0.1,2.8,0.1c2.1,0,3.8-1,3.8-2.4c0-1.3-1.6-2.5-3.6-2.5
			c-2.1,0-3.5,1-3.4,2.5C411.6,57.9,411.9,58.6,412,59.3z"/>
	</g>
	<g id="XMLID_51_">
		<path id="XMLID_85_" class="st5" d="M572.2,135.2c1.1-0.7,2.6-1.2,3.9-1.7v0c-0.1-0.2-0.1-0.5-0.2-0.7c-0.2,0.5-0.5,0.8-1.4,0.7
			c-1.2-0.2-0.6-0.9-0.6-1.4c0.2-1.2,1.1-2.3,1.1-3.7c-0.1-6.3,0.1-12.5,0-18.8c0-3.6-2-6.8-5.7-9.5c-1.9-1.4-4.6-1.9-7-3.2
			c1.3-0.4,2.5-0.7,3.5-1.1c5.1-2.1,8.8-4.9,9.5-9.1c1-6.2,0.3-12.4,0.5-18.6c0.2-4.4-0.6-8.5-5.8-11.7c4.2-1.3,5.7-2.5,5.9-4.8
			c0.1-1.6,0.2-3.3,0-4.9c-0.2-2.4-3.4-4.5-6.9-4.6c-12.4-0.1-24.8-0.2-37.2-0.2c-2.7,0-4.8,0.9-6.2,2.6c-1.5,1.9-0.7,3.9-0.8,5.9
			c-0.1,3.2,2.1,5,6.8,5.6c-1.3,1.1-2.5,2.1-3.8,3.2c-1.5-4.7-5.5-7-11.7-6.6c-5.1,0.3-8.7,3.5-8.7,7.8c-0.1,9.6-0.1,19.2-0.2,28.7
			c0,1.6,0.2,3.1,1.6,4.5c1.2,1.1,2.9,1.9,4.6,3c-6.1,2-6.4,5.6-6.4,9.4c0.1,8.9,0,17.8-0.2,26.7c-0.1,2.6,1.1,4.8,4.1,6.5
			c1.2,0.6,1.1,0.9,0,1.5c-2.4,1.3-4.1,2.9-4.1,5.1c-0.1,10.5-0.2,20.9-0.1,31.4c0,2.9,3.9,5.9,7.8,6.3c5,0.6,9.9-1.2,11.7-4.2
			c0.3-0.4,0.1-1,1.1-1.2c1.3,1,3.3,1.9-0.1,3c-2.2,0.7-3.4,2.2-3.3,4c0,1.1,0,2.3,0,3.4c0,3.9,2.9,5.9,8.6,6
			c10.4,0.1,20.7,0,31.1,0.2c9.8,0.2,11.9-2.4,11.6-7.8c-0.2-3.1-1.1-5.5-6-6.5c3.1-2.7,5.2-5.5,5.3-8.8c0.2-6.5,0.4-13,0.1-19.5
			c-0.2-4.8-3.4-8.6-9.8-11c-0.7-0.3-1.6-0.3-1.9-1c1.4-0.2,2.6-0.6,3.7-1.2C568.8,137.8,570.4,136.4,572.2,135.2z"/>
		<path id="XMLID_62_" class="st5" d="M527.4,118.7c0,2.9-0.1,5.8,0,8.6c0,1.4-0.3,2.8,0.3,4.1c2.4,5,7.9,8.2,16.6,8.3
			c4,0,8,0.1,11.9,0.1c9.1,0,16.2-4.4,16.4-10.5c0.3-7,0.3-14,0.1-21c-0.1-4.7-5.3-9.2-13.3-10c-5.3-0.6-10.7-0.4-16.1-0.3
			c-9.6,0.2-16.4,5.2-16,11.6C527.6,112.6,527.4,115.6,527.4,118.7z"/>
		<path id="XMLID_61_" class="st5" d="M527.8,75.6c0.5,3.4-0.5,7.6,0.7,11.8c1.1,4.1,8.3,8.5,14.8,8.4c5-0.1,10,0,15,0.1
			c2.8,0,5.2-0.6,7.6-1.5c5.9-2.3,7.6-6.1,7.7-10.3c0.1-5.9,0.1-11.9,0.1-17.8c0-1.4-0.3-2.9-0.8-4.3c-0.9-2.9-4.7-5.7-7.7-5.7
			c-9.4-0.1-18.9-0.1-28.3-0.2c-1.4,0-2.4,0.3-3.5,0.9c-3.8,2.3-5.2,5.4-5.5,8.7C527.6,68.7,527.8,71.8,527.8,75.6z"/>
		<path id="XMLID_60_" class="st5" d="M527.1,161.6c0,3.1,0.1,6.3-0.1,9.4c-0.2,2.7,1,5.1,3.2,7.4c1.3,1.3,2.8,2,5.2,2
			c9.1,0,18.3,0,27.4,0.2c3.6,0.1,5.5-1.2,7.1-2.9c1.6-1.7,2.4-3.6,2.4-5.7c0-6.7,0-13.4,0.1-20.1c0.1-6.4-8.3-10.9-16-10.9
			c-4.3,0-8.7,0-13-0.1c-9.1-0.3-16.6,4.9-16.3,10.8C527.3,155.1,527.1,158.3,527.1,161.6z"/>
		<path id="XMLID_59_" class="st5" d="M549.6,193.1c6.1,0,12.2,0.1,18.3,0.1c3.5,0,5.2-1.2,5.4-3.6c0.1-1.2,0.1-2.5,0-3.7
			c0-2.4-2.2-4.1-5.8-4.1c-11.9-0.1-23.8-0.2-35.7-0.2c-3.7,0-5.3,1.3-5.4,3.7c0,1.2,0,2.5,0,3.7c0,2.9,1.4,3.9,5.8,3.9
			C538,193.1,543.8,193.1,549.6,193.1z"/>
		<path id="XMLID_58_" class="st5" d="M550.1,54.6c6.3,0,12.6,0,18.8,0.1c2.7,0,4.4-0.8,4.9-2.4c0.7-1.9,0.7-4,0-5.9
			c-0.5-1.5-1.9-2.6-4.7-2.6c-12.5,0-24.9-0.1-37.4-0.2c-3,0-4.4,1-4.5,3c-0.1,1.6-0.1,3.1,0,4.7c0.1,2.5,1,3.1,4.6,3.2
			C537.9,54.5,544,54.5,550.1,54.6z"/>
		<path id="XMLID_53_" class="st5" d="M538.7,96.8c-4.9-1.2-8-3.6-11.1-6.5c-0.1,3.2-3,4.8-6.3,6.6c3.3,1.3,5.4,3.1,6.4,5.6
			C530.9,100,533.9,97.7,538.7,96.8z"/>
	</g>
	<g id="XMLID_67_">
		<path id="XMLID_87_" class="st5" d="M784.8,431.2c0-1.6-0.2-3.1-1.6-4.5c-1.2-1.1-2.9-1.9-4.6-3c6.1-2,6.4-5.6,6.4-9.4
			c-0.1-8.9-0.1-17.8,0.1-26.7c0-2.6-1.1-4.8-4.1-6.5c-1.2-0.6-1.1-0.9,0-1.5c2.4-1.3,4.1-2.9,4.1-5.1c0-10.5,0.1-20.9,0.1-31.4
			c0-2.9-3.9-5.9-7.8-6.3c-5-0.6-9.9,1.2-11.7,4.2c-0.3,0.4-0.1,1-1.1,1.2c-1.3-1-3.3-1.9,0.1-3c2.1-0.7,3.3-2.2,3.3-3.9
			c0-1.2,0-2.3,0-3.5c0.1-4.7-4.1-6.7-12.2-5.8c-6.9,0.7-13.8,0.8-20.7,0.1c-15.7-1.6-18.7,0.9-18.4,7.3c0.2,3.1,1.1,5.5,6,6.5
			c-3.1,2.7-5.2,5.6-5.3,8.8c-0.2,6.5-0.3,13,0,19.5c0.2,4.8,3.4,8.6,9.8,11c0.7,0.3,1.6,0.3,1.9,1c-1.4,0.2-2.6,0.6-3.7,1.2
			c-2,1.1-3.6,2.5-5.4,3.7c-0.7,0.5-1.6,0.8-2.5,1.2c0,0.2-0.1,0.4-0.1,0.6c0.1,0,0.2,0,0.2,0c1.2,0.2,0.6,0.9,0.6,1.4
			c-0.2,1.2-1.1,2.4-1,3.7c0.1,6.3-0.1,12.5,0,18.8c0,3.6,2,6.8,5.8,9.4c2,1.4,4.6,1.9,7,3.1c-1.3,0.4-2.5,0.7-3.5,1.1
			c-5.1,2.1-8.8,4.9-9.5,9.1c-1,6.2-0.2,12.4-0.5,18.6c-0.2,4.4,0.6,8.5,5.8,11.7c-4.2,1.3-5.7,2.5-5.9,4.8c-0.1,1.6-0.2,3.3,0,4.9
			c0.2,2.4,3.4,4.5,6.9,4.5c12.4,0.1,24.8,0.1,37.2,0.1c2.7,0,4.8-0.9,6.2-2.6c1.4-1.9,0.7-3.9,0.8-5.9c0.1-3.2-2.1-5-6.8-5.6
			c1.3-1.1,2.5-2.1,3.8-3.2c1.5,4.7,5.5,7,11.7,6.6c5.1-0.3,8.7-3.5,8.7-7.9C784.8,450.4,784.8,440.8,784.8,431.2z"/>
		<path id="XMLID_73_" class="st5" d="M764.8,401.9c0-2.9,0.1-5.8,0-8.6c0-1.4,0.3-2.8-0.4-4.1c-2.4-4.9-7.9-8.2-16.6-8.2
			c-4,0-8,0-11.9,0c-9.1,0-16.2,4.4-16.4,10.5c-0.2,7-0.3,14-0.1,21c0.1,4.7,5.3,9.2,13.3,10c5.3,0.5,10.7,0.4,16.1,0.3
			c9.6-0.2,16.4-5.2,15.9-11.7C764.6,408.1,764.8,405,764.8,401.9z"/>
		<path id="XMLID_72_" class="st5" d="M764.5,445c-0.5-3.4,0.4-7.6-0.7-11.8c-1.3-4.5-9.8-9.3-16.6-8.2c-3.7,0.6-7.5,0.4-11.2-0.1
			c-3.7-0.5-6.7,0.3-9.5,1.4c-5.9,2.3-7.6,6.1-7.7,10.3c-0.1,5.9-0.1,11.9,0,17.8c0,1.4,0.4,2.9,0.8,4.3c0.9,2.9,4.7,5.7,7.7,5.7
			c9.4,0.1,18.9,0.1,28.3,0.1c1.4,0,2.4-0.3,3.5-0.9c3.8-2.3,5.2-5.4,5.5-8.7C764.7,451.9,764.5,448.8,764.5,445z"/>
		<path id="XMLID_71_" class="st5" d="M764.9,359c0-3.1-0.1-6.3,0.1-9.4c0.2-2.7-1-5.1-3.2-7.4c-1.6-1.7-3.6-2.3-7.4-1.8
			c-7.7,1-15.5,1-23.1-0.1c-5-0.7-7.3,0.7-9.2,2.7c-2.6,2.7-3,6-1.6,9.5c1.8,4.3,1.3,9.2-0.3,13.6c-3,7.9,7.1,13.8,16,13.5
			c3.9-0.1,7.9-0.2,11.8,0c9.4,0.6,17.3-4.7,17-10.9C764.8,365.5,764.9,362.3,764.9,359z"/>
		<path id="XMLID_70_" class="st5" d="M742.3,327.5c-6.1,0-12.2-0.1-18.3-0.1c-3.5,0-5.2,1.2-5.4,3.6c-0.1,1.2-0.1,2.5,0,3.7
			c0.1,2.4,2.2,4.1,5.8,4.1c11.9,0.1,23.8,0.1,35.7,0.1c3.7,0,5.3-1.3,5.4-3.7c0-1.2,0-2.5,0-3.7c0-2.9-1.4-3.9-5.8-3.9
			C754,327.6,748.1,327.6,742.3,327.5z"/>
		<path id="XMLID_69_" class="st5" d="M742.2,466.1c-6.3,0-12.6,0-18.8-0.1c-2.7,0-4.4,0.8-4.9,2.4c-0.7,1.9-0.7,4,0,5.9
			c0.7,2,2.9,3.2,7.7,2.3c9.9-2,20.1-2,30.1-0.1c5.9,1.2,8.7,0.3,8.9-2.5c0.1-1.6,0.1-3.1,0-4.7c-0.1-2.5-1-3.1-4.6-3.2
			C754.4,466.1,748.3,466.1,742.2,466.1z"/>
		<path id="XMLID_68_" class="st5" d="M753.5,423.9c4.9,1.1,8,3.6,11.1,6.5c0.1-3.2,3-4.9,6.3-6.6c-3.3-1.3-5.4-3.1-6.4-5.6
			C761.3,420.6,758.3,423,753.5,423.9z"/>
	</g>
	<g id="XMLID_75_">
		<path id="XMLID_86_" class="st5" d="M272.7,411.3c-3.1,0.1-5.5,1-6.5,5.9c-2.7-3.2-5.5-5.3-8.8-5.4c-6.5-0.2-13-0.5-19.5-0.3
			c-4.8,0.2-8.7,3.3-11.1,9.7c-0.3,0.7-0.3,1.6-1,1.9c-0.2-1.4-0.6-2.6-1.2-3.7c-1.1-2-2.5-3.6-3.7-5.4c-0.3-0.4-0.5-1-0.7-1.5
			c-0.4-0.1-0.8-0.2-1.2-0.3c-0.3,0.4-0.8,0.1-1.2,0c-1.2-0.2-2.3-1.1-3.6-1.1c-6.3,0-12.5-0.2-18.8-0.2c-3.6,0-6.8,1.9-9.5,5.7
			c-1.4,1.9-2,4.6-3.2,6.9c-0.4-1.3-0.7-2.5-1.1-3.5c-2-5.1-4.8-8.9-9-9.6c-6.2-1-12.4-0.4-18.6-0.7c-4.4-0.2-8.5,0.5-11.8,5.6
			c-1.3-4.2-2.4-5.7-4.7-5.9c-1.6-0.2-3.3-0.2-4.9-0.1c-2.4,0.2-4.6,3.3-4.6,6.8c-0.2,12.4-0.5,24.8-0.6,37.2c0,2.7,0.8,4.9,2.6,6.2
			c1.9,1.5,3.9,0.8,5.9,0.9c3.2,0.2,5-2,5.7-6.8c1.1,1.3,2.1,2.5,3.2,3.8c-4.8,1.4-7,5.4-6.7,11.6c0.2,5.1,3.4,8.7,7.8,8.8
			c9.6,0.2,19.1,0.3,28.7,0.5c1.6,0,3.1-0.2,4.5-1.6c1.2-1.2,1.9-2.9,3-4.6c1.9,6.1,5.5,6.5,9.4,6.5c8.9,0,17.8,0.2,26.7,0.4
			c2.6,0.1,4.8-1,6.5-4c0.6-1.1,0.9-1.1,1.5,0c1.3,2.4,2.8,4.1,5,4.2c10.5,0.2,20.9,0.4,31.4,0.5c2.9,0,5.9-3.8,6.4-7.7
			c0.7-5-1.1-9.9-4.1-11.8c-0.4-0.3-1-0.1-1.2-1.1c1-1.3,1.9-3.3,3,0.2c0.7,2.1,2.1,3.4,3.9,3.4c1.2,0,2.3,0,3.5,0
			c4.7,0.1,6.7-4,6-12.1c-0.7-6.9-0.7-13.8,0.1-20.7C281.6,414.1,279.1,411.1,272.7,411.3z"/>
		<path id="XMLID_81_" class="st5" d="M203.8,458.6c2.9,0,5.8,0.1,8.6,0.1c1.4,0,2.8,0.3,4.1-0.3c5-2.3,8.3-7.8,8.4-16.5
			c0.1-4,0.1-8,0.2-11.9c0.1-9.1-4.2-16.2-10.3-16.5c-7-0.3-14-0.5-21-0.3c-4.7,0.1-9.3,5.2-10.2,13.2c-0.6,5.3-0.5,10.7-0.5,16
			c0.1,9.6,5,16.4,11.5,16.1C197.7,458.3,200.8,458.5,203.8,458.6z"/>
		<path id="XMLID_80_" class="st5" d="M160.8,457.7c3.4-0.4,7.6,0.5,11.8-0.6c4.5-1.2,9.4-9.7,8.4-16.5c-0.5-3.7-0.3-7.5,0.2-11.2
			c0.5-3.7-0.2-6.7-1.3-9.6c-2.2-5.9-6-7.7-10.2-7.8c-5.9-0.2-11.9-0.3-17.8-0.3c-1.4,0-2.9,0.3-4.3,0.7c-2.9,0.9-5.7,4.6-5.8,7.6
			c-0.2,9.4-0.3,18.9-0.5,28.3c0,1.4,0.3,2.4,0.9,3.5c2.3,3.9,5.4,5.2,8.7,5.6C153.9,457.8,157,457.7,160.8,457.7z"/>
		<path id="XMLID_79_" class="st5" d="M246.7,459.3c3.1,0.1,6.3,0,9.4,0.2c2.7,0.2,5.2-1,7.4-3.1c1.7-1.6,2.4-3.6,1.9-7.4
			c-0.9-7.7-0.8-15.5,0.4-23.1c0.8-4.9-0.6-7.3-2.6-9.3c-2.7-2.6-6-3.1-9.5-1.7c-4.4,1.7-9.2,1.2-13.6-0.5
			c-7.9-3.1-13.9,6.9-13.7,15.8c0.1,3.9,0.1,7.9-0.2,11.8c-0.7,9.4,4.5,17.4,10.6,17.2C240.2,459,243.5,459.2,246.7,459.3z"/>
		<path id="XMLID_78_" class="st5" d="M278.5,437.1c0.1-6.1,0.2-12.2,0.3-18.3c0-3.5-1.2-5.2-3.5-5.4c-1.2-0.1-2.5-0.1-3.7-0.1
			c-2.4,0-4.1,2.1-4.2,5.8c-0.3,11.9-0.4,23.8-0.6,35.7c0,3.7,1.2,5.3,3.7,5.4c1.2,0,2.5,0.1,3.7,0.1c2.9,0,3.9-1.3,4-5.8
			C278.3,448.7,278.4,442.9,278.5,437.1z"/>
		<path id="XMLID_77_" class="st5" d="M140,435.2c0.1-6.3,0.2-12.6,0.3-18.8c0.1-2.7-0.8-4.4-2.3-4.9c-1.9-0.7-4-0.7-5.9-0.1
			c-2,0.6-3.2,2.9-2.3,7.6c1.8,10,1.8,20.1-0.3,30.1c-1.2,5.9-0.4,8.7,2.4,8.9c1.6,0.1,3.1,0.1,4.7,0.1c2.5,0,3.2-0.9,3.2-4.5
			C139.8,447.4,139.9,441.3,140,435.2z"/>
		<path id="XMLID_76_" class="st5" d="M182,447c-1.2,4.9-3.7,8-6.6,11c3.2,0.1,4.8,3.1,6.5,6.4c1.3-3.3,3.1-5.4,5.7-6.3
			C185.2,454.8,182.9,451.9,182,447z"/>
	</g>
</g>
</svg>
